<?xml version="1.0" encoding="UTF-8" standalone="no"?>
<!-- Generator: Adobe Illustrator 12.0.1, SVG Export Plug-In . SVG Version: 6.00 Build 51448)  -->

<svg
   version="1.0"
   id="Layer_1"
   width="1920"
   height="1080"
   viewBox="0 0 1920 1080"
   overflow="visible"
   enable-background="new 0 0 504.09 215.994"
   xml:space="preserve"
   sodipodi:docname="Django-logo.svg"
   inkscape:version="1.2.2 (b0a8486541, 2022-12-01)"
   xmlns:inkscape="http://www.inkscape.org/namespaces/inkscape"
   xmlns:sodipodi="http://sodipodi.sourceforge.net/DTD/sodipodi-0.dtd"
   xmlns="http://www.w3.org/2000/svg"
   xmlns:svg="http://www.w3.org/2000/svg"><defs
   id="defs23">
	

		
		
		
		
		
		
	</defs><sodipodi:namedview
   id="namedview21"
   pagecolor="#ffffff"
   bordercolor="#000000"
   borderopacity="0.25"
   inkscape:showpageshadow="2"
   inkscape:pageopacity="0.0"
   inkscape:pagecheckerboard="0"
   inkscape:deskcolor="#d1d1d1"
   showgrid="false"
   inkscape:zoom="1.0505694"
   inkscape:cx="580.63753"
   inkscape:cy="459.7507"
   inkscape:window-width="1920"
   inkscape:window-height="1139"
   inkscape:window-x="0"
   inkscape:window-y="61"
   inkscape:window-maximized="1"
   inkscape:current-layer="Layer_1" />

<rect
   style="fill:#092e20;fill-opacity:1;stroke-width:4.5219"
   id="rect1008"
   width="1920"
   height="1080"
   x="0"
   y="0" /><g
   id="g1301"
   transform="translate(684.29972,73.8331)"><path
     fill="#ffffff"
     d="m 270.50778,393.1709 h 23.872 v 110.496 c -12.246,2.325 -21.237,3.255 -31.002,3.255 -29.142,0 -44.333,-13.174 -44.333,-38.443 0,-24.336 16.122,-40.147 41.078,-40.147 3.875,0 6.82,0.311 10.386,1.239 v -36.4 z m 0,55.62 c -2.79,-0.929 -5.115,-1.239 -8.06,-1.239 -12.091,0 -19.067,7.441 -19.067,20.46 0,12.713 6.666,19.688 18.912,19.688 2.634,0 4.805,-0.155 8.215,-0.618 z"
     id="path4" /><path
     fill="#ffffff"
     d="m 332.35578,430.0349 v 55.341 c 0,19.065 -1.395,28.21 -5.58,36.117 -3.876,7.596 -8.992,12.399 -19.532,17.67 l -22.167,-10.541 c 10.541,-4.96 15.656,-9.297 18.911,-15.966 3.411,-6.819 4.497,-14.727 4.497,-35.498 v -47.123 z m -23.871,-36.737 h 23.871 v 24.493 h -23.871 z"
     id="path6" /></g>
</svg>
